<?xml version="1.0" encoding="UTF-8"?>
<svg id="Camada_1" data-name="Camada 1" xmlns="http://www.w3.org/2000/svg" xmlns:xlink="http://www.w3.org/1999/xlink" viewBox="0 0 137.07 38.6">
  <defs>
    <style>
      .cls-1 {
        fill: url(#Gradiente_sem_nome_19-3);
      }

      .cls-2 {
        fill: url(#Gradiente_sem_nome_19-2);
      }

      .cls-3 {
        fill: url(#Gradiente_sem_nome_19);
      }

      .cls-4 {
        fill: #1d1d1b;
      }
    </style>
    <linearGradient id="Gradiente_sem_nome_19" data-name="Gradiente sem nome 19" x1="78.1" y1="20.75" x2="81.65" y2="20.75" gradientUnits="userSpaceOnUse">
      <stop offset="0" stop-color="#2073a7"/>
      <stop offset="1" stop-color="#11a3d2"/>
    </linearGradient>
    <linearGradient id="Gradiente_sem_nome_19-2" data-name="Gradiente sem nome 19" x1="88.17" y1="23.73" x2="108.61" y2="23.73" xlink:href="#Gradiente_sem_nome_19"/>
    <linearGradient id="Gradiente_sem_nome_19-3" data-name="Gradiente sem nome 19" x1="112.11" y1="18.12" x2="124.53" y2="18.12" xlink:href="#Gradiente_sem_nome_19"/>
  </defs>
  <path class="cls-4" d="m17.43,14.35l-3.2.9c-.2-.53-.49-1.05-.88-1.56s-.91-.93-1.58-1.26-1.51-.5-2.55-.5c-1.42,0-2.6.32-3.54.97s-1.41,1.47-1.41,2.46c0,.88.32,1.58.97,2.1.64.51,1.65.94,3.02,1.28l3.44.84c2.07.5,3.61,1.27,4.63,2.3s1.52,2.35,1.52,3.97c0,1.33-.38,2.51-1.14,3.56-.76,1.05-1.82,1.87-3.17,2.47-1.36.6-2.94.9-4.73.9-2.36,0-4.32-.51-5.86-1.54-1.55-1.03-2.53-2.52-2.94-4.49l3.38-.84c.32,1.25.93,2.18,1.83,2.8.9.62,2.08.93,3.54.93,1.66,0,2.98-.35,3.96-1.06.98-.71,1.47-1.56,1.47-2.56,0-.8-.28-1.48-.84-2.03-.56-.55-1.43-.96-2.59-1.23l-3.86-.9c-2.12-.5-3.68-1.28-4.67-2.34-.99-1.06-1.49-2.39-1.49-3.99,0-1.31.37-2.46,1.11-3.47.74-1,1.75-1.79,3.03-2.37,1.28-.57,2.74-.86,4.36-.86,2.29,0,4.09.5,5.41,1.51,1.31,1.01,2.24,2.33,2.8,3.98Z"/>
  <path class="cls-4" d="m32.63,32.81c-2.17,0-4.04-.51-5.61-1.54-1.57-1.03-2.77-2.44-3.62-4.24-.84-1.8-1.27-3.85-1.27-6.17s.43-4.43,1.3-6.23c.87-1.8,2.09-3.22,3.65-4.24,1.56-1.02,3.39-1.53,5.48-1.53,1.63,0,3.1.3,4.4.9,1.31.6,2.38,1.45,3.21,2.53.83,1.09,1.35,2.35,1.55,3.8h-3.56c-.27-1.06-.87-1.99-1.8-2.81-.93-.82-2.18-1.23-3.75-1.23-1.39,0-2.6.36-3.64,1.08-1.04.72-1.85,1.73-2.43,3.03-.58,1.3-.87,2.83-.87,4.58s.28,3.35.85,4.67c.57,1.33,1.37,2.36,2.41,3.09,1.04.73,2.26,1.1,3.67,1.1.92,0,1.76-.16,2.52-.48.75-.32,1.39-.78,1.91-1.39.52-.6.89-1.33,1.12-2.17h3.56c-.2,1.37-.7,2.6-1.49,3.69-.79,1.09-1.83,1.95-3.12,2.59-1.29.64-2.79.96-4.5.96Z"/>
  <path class="cls-4" d="m46.92,32.32V9.17h3.44v3.5h.24c.42-1.15,1.19-2.08,2.29-2.79,1.11-.71,2.35-1.07,3.74-1.07.26,0,.59,0,.98.01.39.01.69.03.89.05v3.62c-.12-.03-.39-.08-.82-.14-.43-.07-.88-.1-1.35-.1-1.13,0-2.13.23-3.01.7-.88.47-1.57,1.11-2.08,1.93-.51.82-.76,1.75-.76,2.8v14.65h-3.56Z"/>
  <path class="cls-4" d="m63.98,19.3c0-3.8.5-7.29,1.49-10.49.99-3.19,2.4-6.13,4.24-8.81h3.14c-.72,1-1.4,2.22-2.03,3.67s-1.18,3.05-1.65,4.78c-.47,1.73-.84,3.53-1.11,5.37-.27,1.85-.4,3.67-.4,5.47,0,2.39.23,4.82.69,7.28.46,2.46,1.09,4.75,1.87,6.86.78,2.11,1.66,3.83,2.62,5.16h-3.14c-1.84-2.68-3.25-5.62-4.24-8.81-.99-3.19-1.49-6.69-1.49-10.49Z"/>
  <path class="cls-3" d="m78.1,32.32V9.17h3.56v23.16h-3.56Z"/>
  <path class="cls-2" d="m88.17,38.6V9.14h3.44v3.4c.09-.11.19-.21.28-.32.25-.31.61-.72,1.09-1.16.33-.3,1.12-1.01,2.17-1.51,1.42-.68,2.71-.69,3.58-.69,1.95,0,3.67.45,5.16,1.35,1.49.9,2.65,2.18,3.48,3.83.83,1.66,1.25,3.61,1.25,5.86s-.42,4.23-1.25,5.89c-.83,1.66-1.99,2.94-3.47,3.85s-3.18,1.36-5.11,1.36c-.86,0-2.15,0-3.57-.69-1.1-.53-1.89-1.27-2.24-1.6-.48-.45-.83-.88-1.08-1.21l-.16-.24v11.32h-3.56Zm3.5-18.74c0,1.62.26,3.04.77,4.27.51,1.23,1.26,2.19,2.25,2.89.98.69,2.19,1.04,3.62,1.04s2.73-.36,3.73-1.09c1-.73,1.75-1.72,2.26-2.96.51-1.24.76-2.62.76-4.15s-.25-2.87-.75-4.08-1.25-2.18-2.25-2.89c-1-.71-2.25-1.07-3.76-1.07s-2.66.34-3.65,1.01c-.99.67-1.73,1.61-2.23,2.82-.5,1.2-.75,2.61-.75,4.2Z"/>
  <path class="cls-1" d="m124.11,9.17v3.02h-12v-3.02h12Zm-8.5-5.55h3.56v22.07c0,1.01.15,1.76.44,2.25.3.5.68.83,1.15,1,.47.17.96.25,1.49.25.39,0,.71-.02.96-.07.25-.05.45-.08.6-.11l.72,3.2c-.24.09-.58.18-1.01.28-.43.1-.98.14-1.64.14-1.01,0-1.99-.22-2.95-.65-.96-.43-1.75-1.09-2.38-1.97s-.94-2-.94-3.35V3.62Z"/>
  <path class="cls-4" d="m137.07,19.3c0,3.8-.5,7.29-1.49,10.49-.99,3.19-2.4,6.13-4.24,8.81h-3.14c.72-1,1.4-2.22,2.03-3.67.63-1.45,1.18-3.05,1.65-4.78.47-1.73.84-3.53,1.11-5.38.27-1.85.4-3.68.4-5.47,0-2.39-.23-4.82-.69-7.28-.46-2.46-1.09-4.75-1.87-6.86-.78-2.11-1.66-3.83-2.62-5.16h3.14c1.84,2.68,3.25,5.62,4.24,8.81.99,3.19,1.49,6.69,1.49,10.49Z"/>
</svg>