<?xml version="1.0" standalone="no"?>
<!DOCTYPE svg PUBLIC "-//W3C//DTD SVG 20010904//EN"
 "http://www.w3.org/TR/2001/REC-SVG-20010904/DTD/svg10.dtd">
<svg version="1.0" xmlns="http://www.w3.org/2000/svg"
 width="338.000000pt" height="124.000000pt" viewBox="0 0 338.000000 124.000000"
 preserveAspectRatio="xMidYMid meet">

<g transform="translate(0.000000,124.000000) scale(0.100000,-0.100000)"
fill="#000000" stroke="none">
<path d="M1606 801 c-60 -135 -56 -270 11 -398 12 -23 25 -33 40 -33 27 0 28
7 7 35 -25 34 -54 144 -54 210 0 66 29 176 54 210 21 28 20 35 -8 35 -19 0
-28 -11 -50 -59z"/>
<path d="M2447 815 c69 -125 69 -276 -1 -400 l-25 -46 27 3 c22 2 32 14 56 63
41 83 49 222 17 317 -27 81 -46 108 -76 108 l-24 0 26 -45z"/>
<path d="M1740 800 c0 -15 7 -20 25 -20 18 0 25 5 25 20 0 15 -7 20 -25 20
-18 0 -25 -5 -25 -20z"/>
<path d="M2250 736 c-44 -46 -44 -46 -17 -46 l27 0 0 -84 c0 -47 4 -96 10
-110 18 -48 120 -78 120 -36 0 15 -7 20 -28 20 -49 0 -62 26 -62 123 l0 87 46
0 c38 0 45 3 42 18 -2 13 -13 17 -43 17 -36 0 -40 3 -45 28 l-5 28 -45 -45z"/>
<path d="M810 723 c-34 -12 -50 -37 -50 -75 0 -32 5 -41 31 -57 17 -10 49 -22
72 -25 50 -8 67 -21 67 -51 0 -27 -17 -35 -71 -35 -30 0 -42 5 -55 25 -17 27
-54 34 -54 11 0 -24 39 -64 75 -76 58 -19 119 1 143 47 32 59 2 98 -93 121
-75 18 -95 42 -59 69 36 26 114 8 114 -28 0 -5 9 -9 20 -9 38 0 19 54 -27 78
-22 12 -86 15 -113 5z"/>
<path d="M1103 714 c-95 -47 -98 -210 -6 -257 50 -26 88 -29 132 -11 39 15 81
59 81 83 0 18 -38 13 -52 -7 -45 -64 -149 -53 -178 18 -43 105 86 195 167 118
28 -27 63 -37 63 -19 0 16 -42 61 -70 76 -38 19 -97 19 -137 -1z"/>
<path d="M1380 585 c0 -136 1 -145 19 -145 17 0 19 9 23 99 3 112 15 134 74
145 26 5 34 12 34 28 0 18 -4 20 -36 15 -20 -3 -44 -13 -54 -22 -22 -20 -30
-19 -30 5 0 11 -7 20 -15 20 -13 0 -15 -23 -15 -145z"/>
<path d="M1747 723 c-4 -3 -7 -69 -7 -145 0 -131 1 -138 20 -138 19 0 20 7 20
145 0 114 -3 145 -13 145 -8 0 -17 -3 -20 -7z"/>
<path d="M1886 723 c-3 -3 -6 -91 -6 -195 0 -181 1 -188 20 -188 18 0 20 7 20
70 l0 70 33 -20 c96 -59 217 7 217 118 0 119 -107 187 -210 133 -48 -25 -50
-25 -50 -7 0 17 -14 28 -24 19z m221 -68 c28 -32 31 -99 7 -134 -37 -52 -126
-59 -168 -12 -41 45 -28 138 23 167 40 22 110 12 138 -21z"/>
</g>
</svg>
